<mxfile host="app.diagrams.net" modified="2022-07-26T16:23:45.732Z" agent="5.0 (Windows NT 10.0; Win64; x64) AppleWebKit/537.36 (KHTML, like Gecko) Chrome/103.0.0.0 Safari/537.36" etag="YElXQfX2lbxVxA_vfOfT" version="20.2.0" type="github">
  <diagram id="g-zJKIGVzuHOiQszXsKE" name="Page-1">
    <mxGraphModel dx="2044" dy="1171" grid="1" gridSize="20" guides="0" tooltips="1" connect="0" arrows="0" fold="1" page="1" pageScale="1" pageWidth="827" pageHeight="1169" background="none" math="0" shadow="1">
      <root>
        <mxCell id="0" />
        <mxCell id="1" parent="0" />
        <mxCell id="FX0kZfZ6Q6g270so82P7-1" value="" style="rounded=0;whiteSpace=wrap;html=1;fillColor=#3333FF;" vertex="1" parent="1">
          <mxGeometry x="25" y="30" width="320" height="250" as="geometry" />
        </mxCell>
        <mxCell id="FX0kZfZ6Q6g270so82P7-2" value="" style="whiteSpace=wrap;html=1;aspect=fixed;fillColor=#CCCCCC;" vertex="1" parent="1">
          <mxGeometry x="310" y="190" width="60" height="60" as="geometry" />
        </mxCell>
        <mxCell id="FX0kZfZ6Q6g270so82P7-5" value="&lt;font color=&quot;#ffffff&quot;&gt;ATMEGA 328P&lt;/font&gt;" style="rounded=0;whiteSpace=wrap;html=1;fontStyle=3;fontSize=17;fillColor=#000000;" vertex="1" parent="1">
          <mxGeometry x="40" y="100" width="230" height="40" as="geometry" />
        </mxCell>
        <mxCell id="FX0kZfZ6Q6g270so82P7-7" value="" style="rounded=0;whiteSpace=wrap;html=1;fontSize=17;fillColor=#000000;" vertex="1" parent="1">
          <mxGeometry x="320" y="80" width="40" height="40" as="geometry" />
        </mxCell>
        <mxCell id="FX0kZfZ6Q6g270so82P7-8" value="" style="rounded=0;whiteSpace=wrap;html=1;fontSize=17;fillColor=#000000;strokeColor=none;" vertex="1" parent="1">
          <mxGeometry x="40" y="260" width="120" height="10" as="geometry" />
        </mxCell>
        <mxCell id="FX0kZfZ6Q6g270so82P7-16" value="Arduino Uno" style="text;html=1;strokeColor=none;fillColor=none;align=center;verticalAlign=middle;whiteSpace=wrap;rounded=0;fontSize=32;fontStyle=3" vertex="1" parent="1">
          <mxGeometry x="40" y="220" width="200" height="30" as="geometry" />
        </mxCell>
        <mxCell id="FX0kZfZ6Q6g270so82P7-24" value="" style="rounded=0;whiteSpace=wrap;html=1;fontSize=13;fillColor=#33FF33;strokeColor=#00FF00;" vertex="1" parent="1">
          <mxGeometry x="440" y="20" width="410" height="220" as="geometry" />
        </mxCell>
        <mxCell id="FX0kZfZ6Q6g270so82P7-25" value="" style="rounded=1;whiteSpace=wrap;html=1;fontSize=13;fillColor=#999999;strokeColor=none;" vertex="1" parent="1">
          <mxGeometry x="790" y="20" width="40" height="20" as="geometry" />
        </mxCell>
        <mxCell id="FX0kZfZ6Q6g270so82P7-26" value="" style="rounded=0;whiteSpace=wrap;html=1;fontSize=13;fillColor=#808080;strokeColor=none;" vertex="1" parent="1">
          <mxGeometry x="690" y="15" width="40" height="20" as="geometry" />
        </mxCell>
        <mxCell id="FX0kZfZ6Q6g270so82P7-27" value="" style="rounded=0;whiteSpace=wrap;html=1;fontSize=13;fillColor=#808080;strokeColor=none;" vertex="1" parent="1">
          <mxGeometry x="640" y="15" width="40" height="20" as="geometry" />
        </mxCell>
        <mxCell id="FX0kZfZ6Q6g270so82P7-29" value="" style="rounded=0;whiteSpace=wrap;html=1;fontSize=13;strokeColor=#000000;fillColor=#000000;" vertex="1" parent="1">
          <mxGeometry x="580" y="10" width="20" height="60" as="geometry" />
        </mxCell>
        <mxCell id="FX0kZfZ6Q6g270so82P7-30" value="" style="rounded=0;whiteSpace=wrap;html=1;fontSize=13;fillColor=#CCCCCC;strokeColor=none;" vertex="1" parent="1">
          <mxGeometry x="440" y="30" width="120" height="60" as="geometry" />
        </mxCell>
        <mxCell id="FX0kZfZ6Q6g270so82P7-31" value="" style="rounded=0;whiteSpace=wrap;html=1;fontSize=13;fillColor=#CCCCCC;strokeColor=none;" vertex="1" parent="1">
          <mxGeometry x="440" y="100" width="120" height="60" as="geometry" />
        </mxCell>
        <mxCell id="FX0kZfZ6Q6g270so82P7-33" value="" style="rounded=0;whiteSpace=wrap;html=1;fontSize=13;fillColor=#B3B3B3;strokeColor=none;" vertex="1" parent="1">
          <mxGeometry x="430" y="170" width="130" height="60" as="geometry" />
        </mxCell>
        <mxCell id="FX0kZfZ6Q6g270so82P7-35" value="" style="whiteSpace=wrap;html=1;aspect=fixed;fontSize=30;fillColor=#CCCCCC;strokeColor=none;rounded=1;" vertex="1" parent="1">
          <mxGeometry x="680" y="80" width="70" height="70" as="geometry" />
        </mxCell>
        <mxCell id="FX0kZfZ6Q6g270so82P7-36" value="" style="rounded=0;whiteSpace=wrap;html=1;fontSize=30;fillColor=#000000;strokeColor=#000000;" vertex="1" parent="1">
          <mxGeometry x="760" y="160" width="80" height="40" as="geometry" />
        </mxCell>
        <mxCell id="FX0kZfZ6Q6g270so82P7-38" value="" style="whiteSpace=wrap;html=1;aspect=fixed;fontSize=30;fillColor=#1A1A1A;strokeColor=none;" vertex="1" parent="1">
          <mxGeometry x="620" y="140" width="40" height="40" as="geometry" />
        </mxCell>
        <mxCell id="FX0kZfZ6Q6g270so82P7-39" value="Pi" style="text;html=1;strokeColor=none;fillColor=none;align=center;verticalAlign=middle;whiteSpace=wrap;rounded=0;fontSize=36;fontStyle=1;fontFamily=Verdana;" vertex="1" parent="1">
          <mxGeometry x="770" y="60" width="60" height="30" as="geometry" />
        </mxCell>
        <mxCell id="FX0kZfZ6Q6g270so82P7-43" value="USB 3.0" style="text;html=1;strokeColor=none;fillColor=none;align=center;verticalAlign=middle;whiteSpace=wrap;rounded=0;fontFamily=Verdana;fontSize=18;" vertex="1" parent="1">
          <mxGeometry x="440" y="115" width="120" height="30" as="geometry" />
        </mxCell>
        <mxCell id="FX0kZfZ6Q6g270so82P7-44" value="USB 2.0" style="text;html=1;strokeColor=none;fillColor=none;align=center;verticalAlign=middle;whiteSpace=wrap;rounded=0;fontFamily=Verdana;fontSize=18;" vertex="1" parent="1">
          <mxGeometry x="455" y="45" width="90" height="30" as="geometry" />
        </mxCell>
        <mxCell id="FX0kZfZ6Q6g270so82P7-45" value="Ethernet" style="text;html=1;strokeColor=none;fillColor=none;align=center;verticalAlign=middle;whiteSpace=wrap;rounded=0;fontFamily=Verdana;fontSize=18;" vertex="1" parent="1">
          <mxGeometry x="440" y="180" width="110" height="40" as="geometry" />
        </mxCell>
        <mxCell id="FX0kZfZ6Q6g270so82P7-50" value="AUX" style="text;html=1;strokeColor=none;fillColor=none;align=left;verticalAlign=bottom;whiteSpace=wrap;rounded=0;fontFamily=Verdana;fontSize=10;rotation=89;" vertex="1" parent="1">
          <mxGeometry x="598.4" y="30.17" width="40" height="32.68" as="geometry" />
        </mxCell>
        <mxCell id="FX0kZfZ6Q6g270so82P7-51" value="HDMI" style="text;html=1;strokeColor=none;fillColor=none;align=center;verticalAlign=middle;whiteSpace=wrap;rounded=0;fontFamily=Verdana;fontSize=11;fontStyle=0;" vertex="1" parent="1">
          <mxGeometry x="660" y="35" width="60" height="20" as="geometry" />
        </mxCell>
        <mxCell id="FX0kZfZ6Q6g270so82P7-55" value="Power" style="text;html=1;strokeColor=none;fillColor=none;align=right;verticalAlign=top;whiteSpace=wrap;rounded=0;fontFamily=Verdana;fontSize=10;" vertex="1" parent="1">
          <mxGeometry x="740" y="20" width="50" height="25" as="geometry" />
        </mxCell>
        <mxCell id="FX0kZfZ6Q6g270so82P7-56" value="" style="rounded=0;whiteSpace=wrap;html=1;fontFamily=Verdana;fontSize=10;fillColor=#1A1A1A;strokeColor=none;" vertex="1" parent="1">
          <mxGeometry x="580" y="210" width="260" height="10" as="geometry" />
        </mxCell>
        <mxCell id="FX0kZfZ6Q6g270so82P7-57" value="" style="rounded=0;whiteSpace=wrap;html=1;fontFamily=Verdana;fontSize=10;fillColor=#1A1A1A;strokeColor=none;" vertex="1" parent="1">
          <mxGeometry x="580" y="220" width="260" height="10" as="geometry" />
        </mxCell>
        <mxCell id="FX0kZfZ6Q6g270so82P7-67" style="edgeStyle=orthogonalEdgeStyle;rounded=0;orthogonalLoop=1;jettySize=auto;html=1;exitX=1;exitY=0.5;exitDx=0;exitDy=0;fontFamily=Helvetica;fontSize=16;fillColor=#f8cecc;strokeColor=#b85450;" edge="1" parent="1" source="FX0kZfZ6Q6g270so82P7-59" target="FX0kZfZ6Q6g270so82P7-60">
          <mxGeometry relative="1" as="geometry" />
        </mxCell>
        <mxCell id="FX0kZfZ6Q6g270so82P7-71" style="edgeStyle=orthogonalEdgeStyle;rounded=0;orthogonalLoop=1;jettySize=auto;html=1;exitX=1;exitY=0.75;exitDx=0;exitDy=0;entryX=0;entryY=0;entryDx=0;entryDy=0;fontFamily=Helvetica;fontSize=16;fillColor=#f8cecc;strokeColor=#b85450;" edge="1" parent="1" source="FX0kZfZ6Q6g270so82P7-59" target="FX0kZfZ6Q6g270so82P7-60">
          <mxGeometry relative="1" as="geometry" />
        </mxCell>
        <mxCell id="FX0kZfZ6Q6g270so82P7-72" style="edgeStyle=orthogonalEdgeStyle;rounded=0;orthogonalLoop=1;jettySize=auto;html=1;exitX=1;exitY=0.25;exitDx=0;exitDy=0;entryX=0;entryY=1;entryDx=0;entryDy=0;fontFamily=Helvetica;fontSize=16;fillColor=#f8cecc;strokeColor=#b85450;" edge="1" parent="1" source="FX0kZfZ6Q6g270so82P7-59" target="FX0kZfZ6Q6g270so82P7-60">
          <mxGeometry relative="1" as="geometry" />
        </mxCell>
        <mxCell id="FX0kZfZ6Q6g270so82P7-59" value="&lt;font style=&quot;font-size: 16px;&quot;&gt;ESC&lt;/font&gt;&lt;br&gt;&lt;font style=&quot;font-size: 14px; font-weight: normal;&quot;&gt;right top&lt;br&gt;motor&lt;br&gt;&lt;/font&gt;CCW" style="rounded=1;whiteSpace=wrap;html=1;fontFamily=Helvetica;fontSize=13;fontStyle=1;fillColor=#f8cecc;strokeColor=#b85450;" vertex="1" parent="1">
          <mxGeometry x="310" y="320" width="260" height="80" as="geometry" />
        </mxCell>
        <mxCell id="FX0kZfZ6Q6g270so82P7-60" value="M1" style="ellipse;whiteSpace=wrap;html=1;aspect=fixed;fontFamily=Helvetica;fontSize=16;fillColor=#f8cecc;strokeColor=#b85450;" vertex="1" parent="1">
          <mxGeometry x="665" y="320" width="80" height="80" as="geometry" />
        </mxCell>
        <mxCell id="FX0kZfZ6Q6g270so82P7-73" style="edgeStyle=orthogonalEdgeStyle;rounded=0;orthogonalLoop=1;jettySize=auto;html=1;exitX=1;exitY=0.5;exitDx=0;exitDy=0;fontFamily=Helvetica;fontSize=16;fillColor=#fff2cc;strokeColor=#d6b656;" edge="1" parent="1" source="FX0kZfZ6Q6g270so82P7-76" target="FX0kZfZ6Q6g270so82P7-77">
          <mxGeometry relative="1" as="geometry" />
        </mxCell>
        <mxCell id="FX0kZfZ6Q6g270so82P7-78" style="edgeStyle=orthogonalEdgeStyle;rounded=0;orthogonalLoop=1;jettySize=auto;html=1;exitX=1;exitY=0.75;exitDx=0;exitDy=0;entryX=0;entryY=1;entryDx=0;entryDy=0;fontFamily=Helvetica;fontSize=16;fillColor=#fff2cc;strokeColor=#d6b656;" edge="1" parent="1" source="FX0kZfZ6Q6g270so82P7-76" target="FX0kZfZ6Q6g270so82P7-77">
          <mxGeometry relative="1" as="geometry" />
        </mxCell>
        <mxCell id="FX0kZfZ6Q6g270so82P7-79" style="edgeStyle=orthogonalEdgeStyle;rounded=0;orthogonalLoop=1;jettySize=auto;html=1;exitX=1;exitY=0.25;exitDx=0;exitDy=0;entryX=0;entryY=0;entryDx=0;entryDy=0;fontFamily=Helvetica;fontSize=16;fillColor=#fff2cc;strokeColor=#d6b656;" edge="1" parent="1" source="FX0kZfZ6Q6g270so82P7-76" target="FX0kZfZ6Q6g270so82P7-77">
          <mxGeometry relative="1" as="geometry" />
        </mxCell>
        <mxCell id="FX0kZfZ6Q6g270so82P7-76" value="&lt;font style=&quot;font-size: 16px;&quot;&gt;ESC&lt;/font&gt;&lt;br&gt;&lt;font style=&quot;font-size: 14px; font-weight: normal;&quot;&gt;right back&lt;br&gt;motor&lt;br&gt;&lt;/font&gt;CW" style="rounded=1;whiteSpace=wrap;html=1;fontFamily=Helvetica;fontSize=13;fontStyle=1;fillColor=#fff2cc;strokeColor=#d6b656;" vertex="1" parent="1">
          <mxGeometry x="310" y="440" width="260" height="80" as="geometry" />
        </mxCell>
        <mxCell id="FX0kZfZ6Q6g270so82P7-77" value="M2" style="ellipse;whiteSpace=wrap;html=1;aspect=fixed;fontFamily=Helvetica;fontSize=16;fillColor=#fff2cc;strokeColor=#d6b656;" vertex="1" parent="1">
          <mxGeometry x="670" y="440" width="80" height="80" as="geometry" />
        </mxCell>
        <mxCell id="FX0kZfZ6Q6g270so82P7-80" style="edgeStyle=orthogonalEdgeStyle;rounded=0;orthogonalLoop=1;jettySize=auto;html=1;exitX=1;exitY=0.5;exitDx=0;exitDy=0;fontFamily=Helvetica;fontSize=16;fillColor=#f8cecc;strokeColor=#b85450;" edge="1" parent="1" source="FX0kZfZ6Q6g270so82P7-83" target="FX0kZfZ6Q6g270so82P7-84">
          <mxGeometry relative="1" as="geometry" />
        </mxCell>
        <mxCell id="FX0kZfZ6Q6g270so82P7-81" style="edgeStyle=orthogonalEdgeStyle;rounded=0;orthogonalLoop=1;jettySize=auto;html=1;exitX=1;exitY=0.75;exitDx=0;exitDy=0;entryX=0;entryY=0;entryDx=0;entryDy=0;fontFamily=Helvetica;fontSize=16;fillColor=#f8cecc;strokeColor=#b85450;" edge="1" parent="1" source="FX0kZfZ6Q6g270so82P7-83" target="FX0kZfZ6Q6g270so82P7-84">
          <mxGeometry relative="1" as="geometry" />
        </mxCell>
        <mxCell id="FX0kZfZ6Q6g270so82P7-82" style="edgeStyle=orthogonalEdgeStyle;rounded=0;orthogonalLoop=1;jettySize=auto;html=1;exitX=1;exitY=0.25;exitDx=0;exitDy=0;entryX=0;entryY=1;entryDx=0;entryDy=0;fontFamily=Helvetica;fontSize=16;fillColor=#f8cecc;strokeColor=#b85450;" edge="1" parent="1" source="FX0kZfZ6Q6g270so82P7-83" target="FX0kZfZ6Q6g270so82P7-84">
          <mxGeometry relative="1" as="geometry" />
        </mxCell>
        <mxCell id="FX0kZfZ6Q6g270so82P7-83" value="&lt;font style=&quot;font-size: 16px;&quot;&gt;ESC&lt;/font&gt;&lt;br&gt;&lt;font style=&quot;font-size: 14px; font-weight: normal;&quot;&gt;left back&lt;br&gt;motor&lt;br&gt;&lt;/font&gt;CCW" style="rounded=1;whiteSpace=wrap;html=1;fontFamily=Helvetica;fontSize=13;fontStyle=1;fillColor=#f8cecc;strokeColor=#b85450;" vertex="1" parent="1">
          <mxGeometry x="310" y="560" width="260" height="80" as="geometry" />
        </mxCell>
        <mxCell id="FX0kZfZ6Q6g270so82P7-84" value="M3" style="ellipse;whiteSpace=wrap;html=1;aspect=fixed;fontFamily=Helvetica;fontSize=16;fillColor=#f8cecc;strokeColor=#b85450;" vertex="1" parent="1">
          <mxGeometry x="665" y="560" width="80" height="80" as="geometry" />
        </mxCell>
        <mxCell id="FX0kZfZ6Q6g270so82P7-85" style="edgeStyle=orthogonalEdgeStyle;rounded=0;orthogonalLoop=1;jettySize=auto;html=1;exitX=1;exitY=0.5;exitDx=0;exitDy=0;fontFamily=Helvetica;fontSize=16;fillColor=#fff2cc;strokeColor=#d6b656;" edge="1" parent="1" source="FX0kZfZ6Q6g270so82P7-88" target="FX0kZfZ6Q6g270so82P7-89">
          <mxGeometry relative="1" as="geometry" />
        </mxCell>
        <mxCell id="FX0kZfZ6Q6g270so82P7-86" style="edgeStyle=orthogonalEdgeStyle;rounded=0;orthogonalLoop=1;jettySize=auto;html=1;exitX=1;exitY=0.75;exitDx=0;exitDy=0;entryX=0;entryY=1;entryDx=0;entryDy=0;fontFamily=Helvetica;fontSize=16;fillColor=#fff2cc;strokeColor=#d6b656;" edge="1" parent="1" source="FX0kZfZ6Q6g270so82P7-88" target="FX0kZfZ6Q6g270so82P7-89">
          <mxGeometry relative="1" as="geometry" />
        </mxCell>
        <mxCell id="FX0kZfZ6Q6g270so82P7-87" style="edgeStyle=orthogonalEdgeStyle;rounded=0;orthogonalLoop=1;jettySize=auto;html=1;exitX=1;exitY=0.25;exitDx=0;exitDy=0;entryX=0;entryY=0;entryDx=0;entryDy=0;fontFamily=Helvetica;fontSize=16;fillColor=#fff2cc;strokeColor=#d6b656;" edge="1" parent="1" source="FX0kZfZ6Q6g270so82P7-88" target="FX0kZfZ6Q6g270so82P7-89">
          <mxGeometry relative="1" as="geometry" />
        </mxCell>
        <mxCell id="FX0kZfZ6Q6g270so82P7-88" value="&lt;font style=&quot;font-size: 16px;&quot;&gt;ESC&lt;/font&gt;&lt;br&gt;&lt;font style=&quot;font-size: 14px; font-weight: normal;&quot;&gt;left top&lt;br&gt;motor&lt;br&gt;&lt;/font&gt;CW" style="rounded=1;whiteSpace=wrap;html=1;fontFamily=Helvetica;fontSize=13;fontStyle=1;fillColor=#fff2cc;strokeColor=#d6b656;" vertex="1" parent="1">
          <mxGeometry x="310" y="680" width="260" height="80" as="geometry" />
        </mxCell>
        <mxCell id="FX0kZfZ6Q6g270so82P7-89" value="M4" style="ellipse;whiteSpace=wrap;html=1;aspect=fixed;fontFamily=Helvetica;fontSize=16;fillColor=#fff2cc;strokeColor=#d6b656;" vertex="1" parent="1">
          <mxGeometry x="670" y="680" width="80" height="80" as="geometry" />
        </mxCell>
        <mxCell id="FX0kZfZ6Q6g270so82P7-90" value="+" style="text;html=1;strokeColor=none;fillColor=none;align=center;verticalAlign=middle;whiteSpace=wrap;rounded=0;fontFamily=Helvetica;fontSize=16;fontColor=#FF0000;fontStyle=1" vertex="1" parent="1">
          <mxGeometry x="300" y="320" width="60" height="40" as="geometry" />
        </mxCell>
        <mxCell id="FX0kZfZ6Q6g270so82P7-93" value="-" style="text;html=1;strokeColor=none;fillColor=none;align=center;verticalAlign=middle;whiteSpace=wrap;rounded=0;fontFamily=Helvetica;fontSize=16;fontColor=#000000;fontStyle=1" vertex="1" parent="1">
          <mxGeometry x="300" y="360" width="60" height="40" as="geometry" />
        </mxCell>
        <mxCell id="FX0kZfZ6Q6g270so82P7-96" value="+" style="text;html=1;strokeColor=none;fillColor=none;align=center;verticalAlign=middle;whiteSpace=wrap;rounded=0;fontFamily=Helvetica;fontSize=16;fontColor=#FF0000;fontStyle=1" vertex="1" parent="1">
          <mxGeometry x="300" y="440" width="60" height="40" as="geometry" />
        </mxCell>
        <mxCell id="FX0kZfZ6Q6g270so82P7-97" value="-" style="text;html=1;strokeColor=none;fillColor=none;align=center;verticalAlign=middle;whiteSpace=wrap;rounded=0;fontFamily=Helvetica;fontSize=16;fontColor=#000000;fontStyle=1" vertex="1" parent="1">
          <mxGeometry x="300" y="480" width="60" height="40" as="geometry" />
        </mxCell>
        <mxCell id="FX0kZfZ6Q6g270so82P7-98" value="+" style="text;html=1;strokeColor=none;fillColor=none;align=center;verticalAlign=middle;whiteSpace=wrap;rounded=0;fontFamily=Helvetica;fontSize=16;fontColor=#FF0000;fontStyle=1" vertex="1" parent="1">
          <mxGeometry x="300" y="560" width="60" height="40" as="geometry" />
        </mxCell>
        <mxCell id="FX0kZfZ6Q6g270so82P7-99" value="-" style="text;html=1;strokeColor=none;fillColor=none;align=center;verticalAlign=middle;whiteSpace=wrap;rounded=0;fontFamily=Helvetica;fontSize=16;fontColor=#000000;fontStyle=1" vertex="1" parent="1">
          <mxGeometry x="300" y="600" width="60" height="40" as="geometry" />
        </mxCell>
        <mxCell id="FX0kZfZ6Q6g270so82P7-104" value="+" style="text;html=1;strokeColor=none;fillColor=none;align=center;verticalAlign=middle;whiteSpace=wrap;rounded=0;fontFamily=Helvetica;fontSize=16;fontColor=#FF0000;fontStyle=1" vertex="1" parent="1">
          <mxGeometry x="300" y="680" width="60" height="40" as="geometry" />
        </mxCell>
        <mxCell id="FX0kZfZ6Q6g270so82P7-105" value="-" style="text;html=1;strokeColor=none;fillColor=none;align=center;verticalAlign=middle;whiteSpace=wrap;rounded=0;fontFamily=Helvetica;fontSize=16;fontColor=#000000;fontStyle=1" vertex="1" parent="1">
          <mxGeometry x="300" y="720" width="60" height="40" as="geometry" />
        </mxCell>
        <mxCell id="FX0kZfZ6Q6g270so82P7-108" value="&lt;br style=&quot;font-size: 22px;&quot;&gt;+" style="text;html=1;strokeColor=none;fillColor=none;align=center;verticalAlign=bottom;whiteSpace=wrap;rounded=0;fontFamily=Helvetica;fontSize=22;fontColor=#FF0000;fontStyle=1" vertex="1" parent="1">
          <mxGeometry x="480" y="680" width="60" height="30" as="geometry" />
        </mxCell>
        <mxCell id="FX0kZfZ6Q6g270so82P7-109" value="-" style="text;html=1;strokeColor=none;fillColor=none;align=center;verticalAlign=bottom;whiteSpace=wrap;rounded=0;fontFamily=Helvetica;fontSize=22;fontColor=#000000;fontStyle=1" vertex="1" parent="1">
          <mxGeometry x="500" y="680" width="60" height="30" as="geometry" />
        </mxCell>
        <mxCell id="FX0kZfZ6Q6g270so82P7-110" value="&lt;font color=&quot;#0000ff&quot;&gt;s&lt;/font&gt;" style="text;html=1;strokeColor=none;fillColor=none;align=center;verticalAlign=bottom;whiteSpace=wrap;rounded=0;fontFamily=Helvetica;fontSize=22;fontColor=#FFD966;fontStyle=1" vertex="1" parent="1">
          <mxGeometry x="520" y="680" width="60" height="30" as="geometry" />
        </mxCell>
        <mxCell id="FX0kZfZ6Q6g270so82P7-122" value="&lt;br style=&quot;font-size: 22px;&quot;&gt;+" style="text;html=1;strokeColor=none;fillColor=none;align=center;verticalAlign=bottom;whiteSpace=wrap;rounded=0;fontFamily=Helvetica;fontSize=22;fontColor=#FF0000;fontStyle=1" vertex="1" parent="1">
          <mxGeometry x="480" y="320" width="60" height="30" as="geometry" />
        </mxCell>
        <mxCell id="FX0kZfZ6Q6g270so82P7-123" value="-" style="text;html=1;strokeColor=none;fillColor=none;align=center;verticalAlign=bottom;whiteSpace=wrap;rounded=0;fontFamily=Helvetica;fontSize=22;fontColor=#000000;fontStyle=1" vertex="1" parent="1">
          <mxGeometry x="500" y="320" width="60" height="30" as="geometry" />
        </mxCell>
        <mxCell id="FX0kZfZ6Q6g270so82P7-124" value="&lt;font color=&quot;#0000ff&quot;&gt;s&lt;/font&gt;" style="text;html=1;strokeColor=none;fillColor=none;align=center;verticalAlign=bottom;whiteSpace=wrap;rounded=0;fontFamily=Helvetica;fontSize=22;fontColor=#FFD966;fontStyle=1" vertex="1" parent="1">
          <mxGeometry x="520" y="320" width="60" height="30" as="geometry" />
        </mxCell>
        <mxCell id="FX0kZfZ6Q6g270so82P7-125" value="&lt;br style=&quot;font-size: 22px;&quot;&gt;+" style="text;html=1;strokeColor=none;fillColor=none;align=center;verticalAlign=bottom;whiteSpace=wrap;rounded=0;fontFamily=Helvetica;fontSize=22;fontColor=#FF0000;fontStyle=1" vertex="1" parent="1">
          <mxGeometry x="480" y="440" width="60" height="30" as="geometry" />
        </mxCell>
        <mxCell id="FX0kZfZ6Q6g270so82P7-126" value="-" style="text;html=1;strokeColor=none;fillColor=none;align=center;verticalAlign=bottom;whiteSpace=wrap;rounded=0;fontFamily=Helvetica;fontSize=22;fontColor=#000000;fontStyle=1" vertex="1" parent="1">
          <mxGeometry x="500" y="440" width="60" height="30" as="geometry" />
        </mxCell>
        <mxCell id="FX0kZfZ6Q6g270so82P7-127" value="&lt;font color=&quot;#0000ff&quot;&gt;s&lt;/font&gt;" style="text;html=1;strokeColor=none;fillColor=none;align=center;verticalAlign=bottom;whiteSpace=wrap;rounded=0;fontFamily=Helvetica;fontSize=22;fontColor=#FFD966;fontStyle=1" vertex="1" parent="1">
          <mxGeometry x="520" y="440" width="60" height="30" as="geometry" />
        </mxCell>
        <mxCell id="FX0kZfZ6Q6g270so82P7-128" value="&lt;br style=&quot;font-size: 22px;&quot;&gt;+" style="text;html=1;strokeColor=none;fillColor=none;align=center;verticalAlign=bottom;whiteSpace=wrap;rounded=0;fontFamily=Helvetica;fontSize=22;fontColor=#FF0000;fontStyle=1" vertex="1" parent="1">
          <mxGeometry x="480" y="560" width="60" height="30" as="geometry" />
        </mxCell>
        <mxCell id="FX0kZfZ6Q6g270so82P7-129" value="-" style="text;html=1;strokeColor=none;fillColor=none;align=center;verticalAlign=bottom;whiteSpace=wrap;rounded=0;fontFamily=Helvetica;fontSize=22;fontColor=#000000;fontStyle=1" vertex="1" parent="1">
          <mxGeometry x="500" y="560" width="60" height="30" as="geometry" />
        </mxCell>
        <mxCell id="FX0kZfZ6Q6g270so82P7-130" value="&lt;font color=&quot;#0000ff&quot;&gt;s&lt;/font&gt;" style="text;html=1;strokeColor=none;fillColor=none;align=center;verticalAlign=bottom;whiteSpace=wrap;rounded=0;fontFamily=Helvetica;fontSize=22;fontColor=#FFD966;fontStyle=1" vertex="1" parent="1">
          <mxGeometry x="520" y="560" width="60" height="30" as="geometry" />
        </mxCell>
        <mxCell id="FX0kZfZ6Q6g270so82P7-131" value="GY-521" style="rounded=0;fontFamily=Comic Sans MS;fontSize=20;strokeColor=none;fillColor=#6666FF;verticalAlign=bottom;align=right;fontStyle=0;fontColor=default;" vertex="1" parent="1">
          <mxGeometry x="60" y="360" width="160" height="200" as="geometry" />
        </mxCell>
        <mxCell id="FX0kZfZ6Q6g270so82P7-132" value="" style="whiteSpace=wrap;html=1;aspect=fixed;fontFamily=Helvetica;fontSize=17;fontColor=#0000FF;strokeColor=#000000;fillColor=#000000;direction=west;" vertex="1" parent="1">
          <mxGeometry x="240" y="180" width="40" height="40" as="geometry" />
        </mxCell>
        <mxCell id="FX0kZfZ6Q6g270so82P7-133" value="VCC" style="text;html=1;strokeColor=none;fillColor=none;align=left;verticalAlign=middle;whiteSpace=wrap;rounded=0;fontFamily=Helvetica;fontSize=19;fontColor=#FF0000;fontStyle=1;labelPosition=center;verticalLabelPosition=top;" vertex="1" parent="1">
          <mxGeometry x="60" y="440" width="60" height="30" as="geometry" />
        </mxCell>
        <mxCell id="FX0kZfZ6Q6g270so82P7-134" value="GND" style="text;html=1;strokeColor=none;fillColor=none;align=left;verticalAlign=middle;whiteSpace=wrap;rounded=0;fontFamily=Helvetica;fontSize=19;fontColor=#000000;fontStyle=1;labelPosition=center;verticalLabelPosition=top;" vertex="1" parent="1">
          <mxGeometry x="60" y="460" width="60" height="30" as="geometry" />
        </mxCell>
        <mxCell id="FX0kZfZ6Q6g270so82P7-135" value="SCL" style="text;html=1;strokeColor=none;fillColor=none;align=left;verticalAlign=middle;whiteSpace=wrap;rounded=0;fontFamily=Helvetica;fontSize=19;fontColor=#006666;fontStyle=1;labelPosition=center;verticalLabelPosition=top;" vertex="1" parent="1">
          <mxGeometry x="60" y="480" width="60" height="30" as="geometry" />
        </mxCell>
        <mxCell id="FX0kZfZ6Q6g270so82P7-136" value="SDA" style="text;html=1;strokeColor=none;fillColor=none;align=left;verticalAlign=middle;whiteSpace=wrap;rounded=0;fontFamily=Helvetica;fontSize=19;fontColor=#003300;fontStyle=1;labelPosition=center;verticalLabelPosition=top;" vertex="1" parent="1">
          <mxGeometry x="60" y="500" width="60" height="30" as="geometry" />
        </mxCell>
        <mxCell id="FX0kZfZ6Q6g270so82P7-137" value="GSM" style="rounded=0;whiteSpace=wrap;html=1;fontFamily=Helvetica;fontSize=37;strokeColor=none;fillColor=#3399FF;align=left;verticalAlign=bottom;horizontal=1;gradientColor=none;" vertex="1" parent="1">
          <mxGeometry x="860" y="360" width="460" height="320" as="geometry" />
        </mxCell>
        <mxCell id="FX0kZfZ6Q6g270so82P7-139" value="SIM900A" style="whiteSpace=wrap;html=1;aspect=fixed;fontFamily=Helvetica;fontSize=30;fontColor=#003300;strokeColor=none;fillColor=#B3B3B3;fontStyle=1;rounded=1;" vertex="1" parent="1">
          <mxGeometry x="920" y="440" width="160" height="160" as="geometry" />
        </mxCell>
        <mxCell id="FX0kZfZ6Q6g270so82P7-140" value="" style="rounded=0;whiteSpace=wrap;html=1;fontFamily=Helvetica;fontSize=30;fontColor=#003300;strokeColor=#FFD966;fillColor=#FFD966;gradientColor=none;" vertex="1" parent="1">
          <mxGeometry x="900" y="320" width="40" height="60" as="geometry" />
        </mxCell>
        <mxCell id="FX0kZfZ6Q6g270so82P7-141" value="" style="rounded=1;whiteSpace=wrap;html=1;fontFamily=Helvetica;fontSize=30;fontColor=#003300;strokeColor=#FFD966;fillColor=#000000;gradientColor=none;glass=0;shadow=0;sketch=0;fillStyle=auto;" vertex="1" parent="1">
          <mxGeometry x="880" y="300" width="580" height="40" as="geometry" />
        </mxCell>
        <mxCell id="FX0kZfZ6Q6g270so82P7-143" value="" style="rounded=0;whiteSpace=wrap;html=1;fontSize=17;fillColor=#000000;strokeColor=none;" vertex="1" parent="1">
          <mxGeometry x="180" y="260" width="140" height="10" as="geometry" />
        </mxCell>
        <mxCell id="FX0kZfZ6Q6g270so82P7-144" value="" style="rounded=0;whiteSpace=wrap;html=1;fontSize=17;fillColor=#000000;strokeColor=none;" vertex="1" parent="1">
          <mxGeometry x="40" y="40" width="140" height="10" as="geometry" />
        </mxCell>
        <mxCell id="FX0kZfZ6Q6g270so82P7-145" value="" style="rounded=0;whiteSpace=wrap;html=1;fontSize=17;fillColor=#000000;strokeColor=none;" vertex="1" parent="1">
          <mxGeometry x="200" y="40" width="140" height="10" as="geometry" />
        </mxCell>
        <mxCell id="FX0kZfZ6Q6g270so82P7-146" value="" style="rounded=0;whiteSpace=wrap;html=1;shadow=0;glass=0;sketch=0;fillStyle=auto;fontFamily=Helvetica;fontSize=24;fontColor=#003300;strokeColor=none;fillColor=#000000;gradientColor=none;" vertex="1" parent="1">
          <mxGeometry x="1120" y="360" width="100" height="180" as="geometry" />
        </mxCell>
        <mxCell id="FX0kZfZ6Q6g270so82P7-149" value="" style="line;strokeWidth=2;direction=south;html=1;rounded=1;shadow=0;glass=0;sketch=0;fillStyle=auto;fontFamily=Helvetica;fontSize=24;fontColor=#003300;fillColor=none;gradientColor=none;strokeColor=#4D4D4D;" vertex="1" parent="1">
          <mxGeometry x="1140" y="360" width="10" height="180" as="geometry" />
        </mxCell>
        <mxCell id="FX0kZfZ6Q6g270so82P7-150" value="" style="line;strokeWidth=2;direction=south;html=1;rounded=1;shadow=0;glass=0;sketch=0;fillStyle=auto;fontFamily=Helvetica;fontSize=24;fontColor=#003300;fillColor=none;gradientColor=none;strokeColor=#4D4D4D;" vertex="1" parent="1">
          <mxGeometry x="1160" y="360" width="10" height="180" as="geometry" />
        </mxCell>
        <mxCell id="FX0kZfZ6Q6g270so82P7-151" value="" style="line;strokeWidth=2;direction=south;html=1;rounded=1;shadow=0;glass=0;sketch=0;fillStyle=auto;fontFamily=Helvetica;fontSize=24;fontColor=#003300;fillColor=none;gradientColor=none;strokeColor=#4D4D4D;" vertex="1" parent="1">
          <mxGeometry x="1180" y="360" width="10" height="180" as="geometry" />
        </mxCell>
        <mxCell id="FX0kZfZ6Q6g270so82P7-153" value="" style="ellipse;shape=doubleEllipse;whiteSpace=wrap;html=1;aspect=fixed;rounded=1;shadow=0;glass=0;sketch=0;fillStyle=auto;fontFamily=Helvetica;fontSize=24;fontColor=#003300;strokeColor=#000000;fillColor=#000000;gradientColor=none;" vertex="1" parent="1">
          <mxGeometry x="1220" y="560" width="40" height="40" as="geometry" />
        </mxCell>
        <mxCell id="FX0kZfZ6Q6g270so82P7-154" value="" style="ellipse;shape=doubleEllipse;whiteSpace=wrap;html=1;aspect=fixed;rounded=1;shadow=0;glass=0;sketch=0;fillStyle=auto;fontFamily=Helvetica;fontSize=24;fontColor=#003300;strokeColor=#999999;fillColor=#B3B3B3;gradientColor=none;" vertex="1" parent="1">
          <mxGeometry x="1120" y="620" width="40" height="40" as="geometry" />
        </mxCell>
        <mxCell id="FX0kZfZ6Q6g270so82P7-155" value="" style="ellipse;shape=doubleEllipse;whiteSpace=wrap;html=1;aspect=fixed;rounded=1;shadow=0;glass=0;sketch=0;fillStyle=auto;fontFamily=Helvetica;fontSize=24;fontColor=#003300;strokeColor=#999999;fillColor=#B3B3B3;gradientColor=none;" vertex="1" parent="1">
          <mxGeometry x="1180" y="600" width="40" height="40" as="geometry" />
        </mxCell>
        <mxCell id="FX0kZfZ6Q6g270so82P7-156" value="" style="ellipse;shape=doubleEllipse;whiteSpace=wrap;html=1;aspect=fixed;rounded=1;shadow=0;glass=0;sketch=0;fillStyle=auto;fontFamily=Helvetica;fontSize=24;fontColor=#003300;strokeColor=#999999;fillColor=#B3B3B3;gradientColor=none;" vertex="1" parent="1">
          <mxGeometry x="1240" y="500" width="40" height="40" as="geometry" />
        </mxCell>
        <mxCell id="FX0kZfZ6Q6g270so82P7-157" value="" style="ellipse;shape=doubleEllipse;whiteSpace=wrap;html=1;aspect=fixed;rounded=1;shadow=0;glass=0;sketch=0;fillStyle=auto;fontFamily=Helvetica;fontSize=24;fontColor=#003300;strokeColor=#999999;fillColor=#B3B3B3;gradientColor=none;" vertex="1" parent="1">
          <mxGeometry x="300" y="60" width="20" height="20" as="geometry" />
        </mxCell>
        <mxCell id="FX0kZfZ6Q6g270so82P7-158" value="" style="ellipse;shape=doubleEllipse;whiteSpace=wrap;html=1;aspect=fixed;rounded=1;shadow=0;glass=0;sketch=0;fillStyle=auto;fontFamily=Helvetica;fontSize=24;fontColor=#003300;strokeColor=#999999;fillColor=#B3B3B3;gradientColor=none;" vertex="1" parent="1">
          <mxGeometry x="280" y="60" width="20" height="20" as="geometry" />
        </mxCell>
        <mxCell id="FX0kZfZ6Q6g270so82P7-160" value="" style="ellipse;whiteSpace=wrap;html=1;rounded=1;shadow=0;glass=0;sketch=0;fillStyle=auto;fontFamily=Helvetica;fontSize=24;fontColor=#003300;strokeColor=#999999;fillColor=#B3B3B3;gradientColor=none;" vertex="1" parent="1">
          <mxGeometry x="280" y="140" width="40" height="20" as="geometry" />
        </mxCell>
        <mxCell id="FX0kZfZ6Q6g270so82P7-161" value="" style="rounded=0;whiteSpace=wrap;html=1;fontSize=17;fillColor=#000000;" vertex="1" parent="1">
          <mxGeometry x="1300" y="580" width="60" height="60" as="geometry" />
        </mxCell>
        <mxCell id="FX0kZfZ6Q6g270so82P7-162" value="" style="rounded=1;whiteSpace=wrap;html=1;shadow=0;glass=0;sketch=0;fillStyle=auto;fontFamily=Comic Sans MS;fontSize=31;fontColor=default;strokeColor=#999999;fillColor=#B3B3B3;gradientColor=none;" vertex="1" parent="1">
          <mxGeometry x="1300" y="400" width="80" height="160" as="geometry" />
        </mxCell>
        <mxCell id="FX0kZfZ6Q6g270so82P7-163" value="" style="whiteSpace=wrap;html=1;aspect=fixed;rounded=0;shadow=0;glass=0;sketch=0;fillStyle=auto;fontFamily=Comic Sans MS;fontSize=24;fontColor=#FFFFFF;strokeColor=#999999;fillColor=#1A1A1A;gradientColor=none;arcSize=28;opacity=90;" vertex="1" parent="1">
          <mxGeometry x="120" y="420" width="60" height="60" as="geometry" />
        </mxCell>
        <mxCell id="FX0kZfZ6Q6g270so82P7-165" value="" style="rounded=0;whiteSpace=wrap;html=1;shadow=0;glass=0;sketch=0;fillStyle=auto;fontFamily=Comic Sans MS;fontSize=24;strokeColor=none;fillColor=#fff2cc;" vertex="1" parent="1">
          <mxGeometry x="160" y="380" width="40" height="20" as="geometry" />
        </mxCell>
        <mxCell id="FX0kZfZ6Q6g270so82P7-166" value="" style="rounded=0;whiteSpace=wrap;html=1;shadow=0;glass=0;sketch=0;fillStyle=auto;fontFamily=Comic Sans MS;fontSize=24;strokeColor=none;fillColor=#fff2cc;" vertex="1" parent="1">
          <mxGeometry x="80" y="520" width="40" height="20" as="geometry" />
        </mxCell>
        <mxCell id="FX0kZfZ6Q6g270so82P7-167" value="" style="rounded=0;whiteSpace=wrap;html=1;shadow=0;glass=0;sketch=0;fillStyle=auto;fontFamily=Comic Sans MS;fontSize=24;strokeColor=none;fillColor=#fff2cc;rotation=-90;" vertex="1" parent="1">
          <mxGeometry x="180" y="480" width="40" height="20" as="geometry" />
        </mxCell>
        <mxCell id="FX0kZfZ6Q6g270so82P7-169" value="TX" style="text;html=1;strokeColor=none;fillColor=none;align=center;verticalAlign=middle;whiteSpace=wrap;rounded=0;shadow=0;glass=0;sketch=0;fillStyle=auto;fontFamily=Comic Sans MS;fontSize=26;fontColor=#003300;opacity=90;fontStyle=1;" vertex="1" parent="1">
          <mxGeometry x="860" y="460" width="60" height="30" as="geometry" />
        </mxCell>
        <mxCell id="FX0kZfZ6Q6g270so82P7-170" value="RX" style="text;html=1;strokeColor=none;fillColor=none;align=center;verticalAlign=middle;whiteSpace=wrap;rounded=0;shadow=0;glass=0;sketch=0;fillStyle=auto;fontFamily=Comic Sans MS;fontSize=26;fontColor=#000033;opacity=90;fontStyle=1;" vertex="1" parent="1">
          <mxGeometry x="860" y="500" width="60" height="30" as="geometry" />
        </mxCell>
      </root>
    </mxGraphModel>
  </diagram>
</mxfile>
